<?xml version="1.0" encoding="UTF-8"?>
<svg width="33px" height="40px" viewBox="0 0 33 40" version="1.1" xmlns="http://www.w3.org/2000/svg" xmlns:xlink="http://www.w3.org/1999/xlink">
    <title>help</title>
    <g id="页面-1" stroke="none" stroke-width="1" fill="none" fill-rule="evenodd">
        <g id="列表页" transform="translate(-1728.000000, -10.000000)">
            <g id="help" transform="translate(1728.000000, 10.000000)">
                <path d="M23.76,32.8057143 L11.1,32.8057143 C10.4642007,32.8058799 9.94887133,33.3213435 9.94887133,33.9571429 C9.94887133,34.5929422 10.4642007,35.1084058 11.1,35.1085714 L23.7614286,35.1085714 C24.3972279,35.1084058 24.9125573,34.5929422 24.9125573,33.9571429 C24.9125573,33.3213435 24.3972279,32.8058799 23.7614286,32.8057143 L23.76,32.8057143 Z" id="路径" fill="#FAEFC4" fill-rule="nonzero"></path>
                <path d="M23.72,36.2585714 L11.1628571,36.2585714 C10.5,36.2585714 9.95857141,36.57 9.95857141,36.9442857 C9.95857141,37.7214286 12.8942857,38.3771428 14.8628571,38.59 C14.7727122,38.7286222 14.7245878,38.8903598 14.7242857,39.0557143 L14.7242857,39.1371429 C14.7242854,39.3662346 14.8153894,39.5859224 14.9775156,39.7477806 C15.1396418,39.9096389 15.3594801,40.0003793 15.5885714,40.0000012 L19.2714286,40.0000012 C19.7479714,40.0000012 20.1342857,39.6136857 20.1342857,39.1371429 L20.1342857,39.0614286 C20.1336342,38.8981157 20.0860278,38.7384358 19.9971429,38.6014286 C21.9414286,38.4 24.8942857,37.7328572 24.8942857,36.95 C24.8714286,36.57 24.3528571,36.2585714 23.72,36.2585714 L23.72,36.2585714 Z" id="路径" fill="#FAEFC4" fill-rule="nonzero"></path>
                <path d="M17.43,-1.0658141e-14 C10.5019053,0.00365033095 4.45914656,4.70694271 2.75489508,11.422152 C1.05064359,18.1373613 4.119251,25.1530253 10.2071429,28.46 L10.2071429,30.5028571 C10.2071429,31.14 10.7214286,31.6542857 11.3571429,31.6542857 L23.4957143,31.6542857 C24.1314286,31.6542857 24.6471429,31.14 24.6471429,30.5042857 L24.6471429,28.4614286 C30.7359083,25.1555385 33.8058772,18.1401171 32.1025946,11.4244041 C30.3993121,4.70869099 24.3569157,0.00440661592 17.4285714,-1.0658141e-14 L17.43,-1.0658141e-14 Z" id="路径" fill="#FAEFC4" fill-rule="nonzero"></path>
                <ellipse id="椭圆形" fill="#EEB005" cx="15.5" cy="16" rx="10.5" ry="9"></ellipse>
                <path d="M21.76,32.8057143 L9.1,32.8057143 C8.46420069,32.8058799 7.94887133,33.3213435 7.94887133,33.9571429 C7.94887133,34.5929422 8.46420069,35.1084058 9.1,35.1085714 L21.7614286,35.1085714 C22.3972279,35.1084058 22.9125573,34.5929422 22.9125573,33.9571429 C22.9125573,33.3213435 22.3972279,32.8058799 21.7614286,32.8057143 L21.76,32.8057143 Z M21.72,36.2585714 L9.16285711,36.2585714 C8.5,36.2585714 7.95857141,36.57 7.95857141,36.9442857 C7.95857141,37.7214286 10.8942857,38.3771428 12.8628571,38.59 C12.7727122,38.7286222 12.7245878,38.8903598 12.7242857,39.0557143 L12.7242857,39.1371429 C12.7242854,39.3662346 12.8153894,39.5859224 12.9775156,39.7477806 C13.1396418,39.9096389 13.3594801,40.0003793 13.5885714,40.0000012 L17.2714286,40.0000012 C17.7479714,40.0000012 18.1342857,39.6136857 18.1342857,39.1371429 L18.1342857,39.0614286 C18.1336342,38.8981157 18.0860278,38.7384358 17.9971429,38.6014286 C19.9414286,38.4 22.8942857,37.7328572 22.8942857,36.95 C22.8714286,36.57 22.3528571,36.2585714 21.72,36.2585714 L21.72,36.2585714 Z M15.43,0 C8.50190532,0.00365033095 2.45914656,4.70694271 0.754895077,11.422152 C-0.949356409,18.1373613 2.119251,25.1530253 8.20714289,28.46 L8.20714289,30.5028571 C8.20714289,31.14 8.72142859,31.6542857 9.35714289,31.6542857 L21.4957143,31.6542857 C22.1314286,31.6542857 22.6471429,31.14 22.6471429,30.5042857 L22.6471429,28.4614286 C28.7359083,25.1555385 31.8058772,18.1401171 30.1025946,11.4244041 C28.3993121,4.70869099 22.3569157,0.00440661592 15.4285714,0 L15.43,0 Z M23.7342857,11.7357143 L21.1442857,20.0357143 C20.9478318,20.6584367 20.3701186,21.0817461 19.7171429,21.0814286 L18.75,21.0814286 C18.07,21.0828572 17.4728571,20.6242857 17.3,19.9657143 L15.5742857,13.4957143 L15.5271429,13.4957143 L13.9042857,19.9485714 C13.7457143,20.62 13.1457143,21.0971428 12.4542857,21.0985714 L11.5042857,21.0985714 C10.8514286,21.0985714 10.2728571,20.6757143 10.0771429,20.0514286 L7.44142859,11.7357143 C7.29578078,11.2804097 7.37653657,10.7829146 7.65872559,10.3970585 C7.94091462,10.0112024 8.39053909,9.78347286 8.86857141,9.7842857 L8.94857141,9.7842857 C9.6257143,9.7842857 10.2171428,10.2371428 10.3942857,10.8885714 L12.1728571,17.45 L12.2185714,17.45 L13.8185714,10.9357143 C13.9787914,10.260621 14.581869,9.78407148 15.2757143,9.7842857 L15.9657143,9.7842857 C16.6585714,9.7842857 17.2614286,10.26 17.4214286,10.9357143 L19.0614286,17.45 L19.1071429,17.45 L20.8571429,10.8885714 C20.999171,10.3636414 21.4141821,9.95669323 21.9417972,9.82498994 C22.4694124,9.69328665 23.0269863,9.85745814 23.3990475,10.2540612 C23.7711087,10.6506642 23.8993778,11.2175752 23.7342857,11.7357143 L23.7342857,11.7357143 Z" id="形状" fill="#FFD947" fill-rule="nonzero"></path>
            </g>
        </g>
    </g>
</svg>