<?xml version="1.0" encoding="UTF-8"?>
<svg width="37px" height="40px" viewBox="0 0 37 40" version="1.1" xmlns="http://www.w3.org/2000/svg" xmlns:xlink="http://www.w3.org/1999/xlink">
    <title>q</title>
    <g id="页面-1" stroke="none" stroke-width="1" fill="none" fill-rule="evenodd">
        <g id="列表页" transform="translate(-1675.000000, -10.000000)" fill-rule="nonzero">
            <g id="q" transform="translate(1675.000000, 10.000000)">
                <path d="M16.0275735,36.8811274 C17.9883579,36.8811274 19.6354167,34.8419118 20.4197304,34.7634804 C28.7334559,33.5870098 35.8707108,26.6066176 35.8707108,17.1164216 C35.8707108,6.37132353 27.4001226,0.0183823529 17.9099265,0.0183823529 C8.41973038,0.0183823529 0.81188727,7.62622551 0.81188727,17.1164216 C0.81188727,25.5870098 6.53737748,32.3321078 14.6158088,33.7438726 C15.5569853,33.822304 14.0667892,36.8811274 16.0275735,36.8811274 Z" id="路径" fill="#DAE9FF"></path>
                <path d="M15.5569853,36.0968137 C16.341299,36.0968137 18.4589461,33.5870098 19.2432598,33.5085784 C27.4785539,32.3321079 33.7530637,25.3517157 33.7530637,16.8811274 C33.7530637,7.54779412 26.223652,0.0183823529 16.8903186,0.0183823529 C7.55698525,0.0183823529 0.0275735294,7.54779412 0.0275735294,16.8811274 C0.0275735294,25.1948529 6.0667892,32.0968137 14.0667892,33.5085784 C15.0079657,33.5870098 14.6158088,36.0968137 15.5569853,36.0968137 Z" id="路径" fill="#3889FF"></path>
                <path d="M18.7726716,20.567402 C18.7726716,21.3517157 18.1452206,21.9791667 17.3609068,21.9791667 C16.5765931,21.9791667 15.3216912,21.5085784 15.3216912,20.6458333 C15.3216912,18.6066176 16.341299,17.5870098 17.8314951,17.0379902 L17.9883579,17.0379902 C19.4001226,16.7242647 20.4981618,15.3909314 20.4981618,13.7438726 C20.4981618,11.8615196 19.0863971,10.3713235 17.3609068,10.3713235 C15.1648284,10.3713235 13.8314951,11.3909314 13.6746324,12.8026961 C13.596201,13.5870098 12.8118873,14.2928922 12.0275735,14.2144608 C11.2432598,14.1360294 10.1452206,13.822304 10.223652,13.0379902 C10.5373775,10.2928922 13.5177696,7.15563727 17.2824755,7.15563727 C20.6550245,7.15563727 23.6354167,9.97916668 23.6354167,13.5085784 C23.6354167,16.4105392 21.5177696,19.3909314 18.8511029,20.0968137 C18.8511029,20.0968137 18.7726716,20.1752451 18.7726716,20.567402 L18.7726716,20.567402 Z M17.2824755,25.7438726 C16.8903187,25.7438726 16.0275735,25.4301471 15.713848,25.1948529 C15.4001225,24.8811274 15.713848,24.7242647 15.713848,24.2536765 C15.713848,23.3909314 16.0275735,22.3713235 16.8903186,22.3713235 C17.0471813,22.3713235 17.6746324,22.5281863 17.8314951,22.6066176 C18.458946,22.8419118 18.9295343,23.3909314 18.9295343,24.0968137 C18.8511029,24.9595588 18.1452206,25.7438726 17.2824755,25.7438726 L17.2824755,25.7438726 Z" id="形状" fill="#DAE9FF"></path>
                <path d="M18.223652,20.3321079 C18.223652,21.1164216 17.5177696,21.8223039 16.7334559,21.8223039 C15.9491421,21.8223039 15.2432598,21.1164216 15.2432598,20.3321079 C15.2432598,18.2928922 15.6354166,17.2732843 17.2040441,16.8026961 L17.3609068,16.8026961 C18.7726716,16.4889706 19.8707108,15.1556373 19.8707108,13.5085784 C19.8707108,11.6262255 18.4589461,10.1360294 16.7334559,10.1360294 C14.5373774,10.1360294 13.3609068,11.4693627 13.2040441,12.8026961 C13.1256127,13.5870098 12.341299,14.2144608 11.5569853,14.1360294 C10.7726716,14.057598 10.1452206,13.2732843 10.223652,12.4889706 C10.5373775,9.74387256 12.8903187,7.23406861 16.7334559,7.23406861 C20.1060049,7.23406861 22.8511029,10.057598 22.8511029,13.5870098 C22.8511029,16.4889706 20.96875,18.9987745 18.3020833,19.7046568 C18.2236519,19.7046568 18.2236519,19.939951 18.223652,20.3321079 L18.223652,20.3321079 Z M16.6550245,25.5870098 C15.7922794,25.5870098 15.0863971,24.8811274 15.0863971,24.0183824 C15.0863971,23.1556373 15.7922794,22.4497549 16.6550245,22.4497549 C17.5177696,22.4497549 18.223652,23.1556373 18.223652,24.0183824 C18.223652,24.8811274 17.5177696,25.5870098 16.6550245,25.5870098 Z" id="形状" fill="#FFFFFF"></path>
                <path d="M3.16482845,37.8223039 C3.16482845,38.7752658 9.06413527,39.5477941 16.341299,39.5477941 C23.6184628,39.5477941 29.5177696,38.7752658 29.5177696,37.8223039 C29.5177696,36.869342 23.6184628,36.0968137 16.341299,36.0968137 C9.06413527,36.0968137 3.16482845,36.869342 3.16482845,37.8223039 Z" id="路径" fill="#DAE9FF"></path>
            </g>
        </g>
    </g>
</svg>