<?xml version="1.0" standalone="no"?>
<!DOCTYPE svg PUBLIC "-//W3C//DTD SVG 20010904//EN"
 "http://www.w3.org/TR/2001/REC-SVG-20010904/DTD/svg10.dtd">
<svg version="1.0" xmlns="http://www.w3.org/2000/svg"
 width="264.000000pt" height="264.000000pt" viewBox="0 0 264.000000 264.000000"
 preserveAspectRatio="xMidYMid meet">
<metadata>
Created by potrace 1.14, written by Peter Selinger 2001-2017
</metadata>
<g transform="translate(0.000000,264.000000) scale(0.100000,-0.100000)"
fill="#000000" stroke="none">
<path d="M1462 2587 c-18 -22 -60 -123 -84 -199 -24 -80 -30 -208 -13 -308 14
-81 12 -317 -3 -369 -8 -23 -15 -41 -16 -40 -2 2 -6 54 -9 114 -14 249 -89
400 -259 516 -79 54 -173 96 -254 113 -82 18 -218 14 -289 -8 -27 -8 -53 -15
-58 -16 -4 0 -31 -12 -59 -26 l-53 -27 60 -55 c107 -97 268 -195 390 -237 28
-9 90 -25 138 -36 142 -30 194 -64 246 -159 l29 -53 -36 -19 c-36 -19 -38 -19
-107 1 -93 27 -122 31 -240 36 -110 4 -187 -5 -285 -35 -187 -57 -441 -237
-485 -345 -20 -47 -19 -51 13 -64 36 -15 126 -7 259 23 185 42 224 55 353 118
142 69 234 104 312 116 68 11 128 10 128 -2 1 -5 -32 -22 -72 -38 -190 -76
-391 -260 -524 -479 l-37 -61 -23 29 c-13 15 -23 31 -24 36 0 4 -5 7 -11 7
-12 0 -10 -87 3 -136 6 -25 2 -44 -21 -95 -47 -104 -137 -378 -155 -474 -1 -5
-10 -53 -20 -105 l-18 -95 -93 -54 c-103 -60 -149 -97 -139 -113 5 -8 363 -9
1228 -4 1040 5 1262 8 1318 15 11 1 -1 27 -60 131 -145 253 -292 386 -387 350
-12 -5 -45 -28 -72 -52 -89 -77 -107 -92 -157 -126 -84 -56 -203 -104 -297
-118 -156 -23 -296 -5 -419 53 -41 20 -88 36 -105 37 -30 0 -174 -13 -207 -19
-16 -3 -16 0 -3 33 27 62 44 155 41 222 -3 77 -28 140 -81 199 l-38 41 6 103
c17 283 125 460 364 594 57 32 76 35 55 11 -21 -27 -22 -81 0 -120 47 -84 172
-79 213 9 29 61 1 132 -66 165 l-34 17 30 1 c22 0 40 -9 63 -34 18 -19 41 -37
51 -41 42 -13 124 -246 150 -425 10 -64 13 -102 20 -222 2 -27 54 -23 89 7 45
38 89 113 107 181 21 83 13 164 -25 240 -31 64 -132 177 -188 209 l-31 19 20
32 c22 35 27 75 16 115 -6 25 -4 28 36 38 23 7 94 15 157 17 100 5 127 2 210
-19 52 -14 97 -23 99 -21 8 8 -36 122 -63 163 -58 85 -133 104 -229 57 -29
-14 -98 -55 -152 -92 -128 -85 -140 -89 -85 -28 56 62 95 141 121 241 53 210
-8 384 -192 542 -28 24 -39 28 -47 18z"/>
<path d="M2121 1633 c23 -100 34 -467 17 -568 l-7 -40 21 27 c30 38 82 160
107 250 52 184 24 299 -84 349 -59 27 -64 25 -54 -18z"/>
</g>
</svg>
