<?xml version="1.0" encoding="UTF-8"?>
<svg width="419px" height="115px" viewBox="0 0 419 115" version="1.1" xmlns="http://www.w3.org/2000/svg" xmlns:xlink="http://www.w3.org/1999/xlink">
    <title>footer-logo</title>
    <g id="Page-1" stroke="none" stroke-width="1" fill="none" fill-rule="evenodd">
        <g id="footer-logo" fill="#FFFFFF" fill-rule="nonzero">
            <path d="M43.91,113.94 L46.19,92.32 L0,92.32 L2.15,71.83 L52.61,4.69 L78.53,4.69 L71.36,72.88 L82.59,72.88 L74,92.32 L69.32,92.32 L67.05,113.94 L43.91,113.94 Z M48.23,72.88 L52.61,31.21 L21.33,72.88 L48.23,72.88 Z" id="Shape"></path>
            <path d="M115.69,77.85 C115.39,77.85 114.92,77.85 114.29,77.93 C113.66,78.01 113.19,78 112.89,78 C101.943333,78 93.38,74.41 87.2,67.23 C81.02,60.05 78.5266667,50.7833333 79.72,39.43 C80.726361,28.7465926 85.9040377,18.8906821 94.13,12 C102.395993,4.73965156 113.069717,0.818109709 124.07,1 C135.07,1 143.866667,4.88 150.46,12.64 C157.053333,20.4 159.72,30.2066667 158.46,42.06 C157.38,52.36 152.75,63.4233333 144.57,75.25 C136.39,87.0766667 124.463333,99.9733333 108.79,113.94 L79.65,113.94 C87.57,106.413333 94.3533333,99.8233333 100,94.17 C105.646667,88.5166667 110.876667,83.0766667 115.69,77.85 Z M135,40.18 C135.610974,35.9513746 134.421221,31.6602822 131.72,28.35 C129.188523,25.2061079 125.334985,23.4235696 121.3,23.53 C116.9212,23.5325307 112.724337,25.2818235 109.64,28.39 C106.312105,31.469904 104.233447,35.6663744 103.8,40.18 C103.175877,44.4095813 104.375216,48.7053928 107.1,52 C109.717674,55.1618375 113.646953,56.9401587 117.75,56.82 C122.056365,56.8275651 126.185357,55.1053501 129.21,52.04 C132.522564,48.9256447 134.581886,44.7074133 135,40.18 Z" id="Shape"></path>
            <path d="M192.13,77.85 C191.83,77.85 191.36,77.85 190.73,77.93 C190.1,78.01 189.63,78 189.33,78 C178.376667,78 169.813333,74.41 163.64,67.23 C157.466667,60.05 154.973333,50.7833333 156.16,39.43 C157.170582,28.7478472 162.347466,18.8934459 170.57,12 C178.835993,4.73965156 189.509717,0.818109709 200.51,1 C211.503333,1 220.3,4.88 226.9,12.64 C233.5,20.4 236.166667,30.2066667 234.9,42.06 C233.833333,52.36 229.2,63.4233333 221,75.25 C212.8,87.0766667 200.87,99.9733333 185.21,113.94 L156.09,113.94 C164.023333,106.406667 170.793333,99.8166667 176.4,94.17 C182.006667,88.5233333 187.25,83.0833333 192.13,77.85 Z M211.39,40.18 C212.006007,35.951056 210.815699,31.6579636 208.11,28.35 C205.5795,25.2048571 201.725306,23.4220152 197.69,23.53 C193.300801,23.5245299 189.091661,25.2744376 186,28.39 C182.675905,31.4727432 180.598007,35.6676765 180.16,40.18 C179.556753,44.4228717 180.789695,48.7218021 183.55,52 C186.162676,55.1627085 190.089511,56.9415944 194.19,56.82 C198.498936,56.8258518 202.630364,55.1040284 205.66,52.04 C208.947417,48.9140757 210.984273,44.6981746 211.39,40.18 Z" id="Shape"></path>
            <path d="M359.59,84.52 C360.420361,76.1462241 364.316704,68.3749073 370.53,62.7 C373.429229,59.9517668 376.822228,57.7768547 380.53,56.29 C384.172654,54.8102534 388.068267,54.0528673 392,54.0593911 C395.767316,54.0346486 399.497918,54.8012107 402.95,56.31 C409.810106,59.366502 414.957709,65.3128083 417,72.54 C418.059841,76.4465341 418.361946,80.5198583 417.89,84.54 C417.536485,88.0139736 416.67392,91.4170599 415.33,94.64 C414.000223,97.7817452 412.188437,100.696797 409.96,103.28 C406.878442,106.914186 403.065591,109.858156 398.77,111.92 C394.652849,113.932895 390.132847,114.985967 385.55,115 C381.808395,115.026404 378.103674,114.259557 374.68,112.75 C371.326147,111.267518 368.344112,109.057464 365.95,106.28 C363.445089,103.41865 361.598354,100.042641 360.54,96.39 C359.44574,92.5343217 359.122909,88.500639 359.59,84.52 L359.59,84.52 Z M373.64,84.52 C373.12,89.5066667 374.136667,93.6666667 376.69,97 C379.061089,100.253136 382.886391,102.124614 386.91,102 C391.212108,101.996144 395.31381,100.181232 398.21,97 C401.477005,93.6085668 403.472795,89.1931027 403.86,84.5 C404.386667,79.4666667 403.386667,75.2766667 400.86,71.93 C398.483721,68.6722842 394.650215,66.8004547 390.62,66.93 C386.325121,66.9407079 382.232236,68.7549301 379.34,71.93 C376.042111,75.3418256 374.02792,79.790714 373.64,84.52 L373.64,84.52 Z" id="Shape"></path>
            <polygon id="Path" points="272.16 12.92 278.47 12.92 276.8 28.84 292.35 28.84 291.7 35.06 276.14 35.06 274.46 51.06 268.15 51.06 269.84 35.06 254.28 35.06 254.94 28.84 270.49 28.84"></polygon>
            <path d="M291.9,71.16 C290.35,62.52 282.9,55.91 276.09,55.91 C268.82,55.91 263.92,55.99 256.89,55.98 L239.23,55.98 L233.11,113.12 L250.91,113.12 C257.49,112.84 264.09,112.79 270.63,112.21 C276.36,111.7 281.46,109.32 284.78,104.65 C291.83,94.75 294.1,83.46 291.9,71.16 Z M272.33,97 C271.144448,98.4875781 269.579431,99.6276568 267.8,100.3 C264.35,101.81 252.8,102.21 248.45,101.19 C248.76,97.83 249.03,94.42 249.38,91.03 C250.18,83.51 251.06,76.03 251.79,68.47 C251.95,66.82 252.64,66.34 254.16,66.36 C258.48,66.43 262.79,66.36 267.16,66.47 C272.39,66.65 275.34,69.14 276.66,74.27 C278.75,82.68 276.82,90.21 272.33,97 Z" id="Shape"></path>
            <path d="M343.17,74 C341.456667,68.7333333 339.733333,63.4566667 338,58.17 C337.90712,57.8630716 337.786628,57.5651878 337.64,57.28 L337.04,55.46 L322,55.46 L322.1,55.58 L322,55.58 L320.83,57.75 C320.72,57.92 320.61,58.1 320.5,58.3 C315.94,66.7666667 311.363333,75.2466667 306.77,83.74 L291.13,112.63 L307.21,112.63 L310.46,106.63 C310.72,106.17 310.97,105.7 311.22,105.23 L312.9,102.16 L314.3,99.51 L316.38,99.51 L330.05,99.43 L331.46,99.43 L333.89,99.43 L334,99.43 L335.25,99.43 L336.19,102.14 L337.43,105.73 C337.68,106.49 337.94,107.24 338.22,107.99 L339.81,112.6 L355.81,112.6 L343.17,74 Z M319,88.15 C322,82.55 324.78,77.46 327.54,72.36 L327.54,72.36 L328.14,71.25 L328.59,72.67 L328.59,72.67 C328.72,73.08 328.84,73.5 328.97,73.91 L328.97,73.91 L333.32,88.14 L319,88.15 Z" id="Shape"></path>
        </g>
    </g>
</svg>