<svg xmlns="http://www.w3.org/2000/svg" viewBox="0 0 418.11 113.98">
    <defs>
    <style>.cls-1{fill:#000;}
    </style>
    </defs>
    <g id="图层_2" data-name="图层 2">
    <g id="图层_1-2" data-name="图层 1">
    <path class="cls-1" d="M43.91,112.94l2.28-21.62H0L2.15,70.83,52.61,3.69H78.53L71.36,71.88H82.59L74,91.32H69.32l-2.27,21.62Zm4.32-41.06,4.38-41.67L21.33,71.88Z"/><path class="cls-1" d="M115.69,76.85c-.3,0-.77,0-1.4.08s-1.1.07-1.4.07Q96.47,77,87.2,66.23t-7.48-27.8A40.77,40.77,0,0,1,94.13,11,44.26,44.26,0,0,1,124.07,0q16.5,0,26.39,11.64t8,29.42q-1.62,15.45-13.89,33.19t-35.78,38.69H79.65Q91.53,101.65,100,93.17T115.69,76.85ZM135,39.18a15.26,15.26,0,0,0-3.28-11.83,12.94,12.94,0,0,0-10.42-4.82,16.44,16.44,0,0,0-11.66,4.86,18.47,18.47,0,0,0-5.84,11.79A15.09,15.09,0,0,0,107.1,51a13.32,13.32,0,0,0,10.65,4.82,16.06,16.06,0,0,0,11.46-4.78A18.63,18.63,0,0,0,135,39.18Z"/><path class="cls-1" d="M192.13,76.85c-.3,0-.77,0-1.4.08s-1.1.07-1.4.07q-16.43,0-25.69-10.77t-7.48-27.8A40.81,40.81,0,0,1,170.57,11,44.26,44.26,0,0,1,200.51,0Q217,0,226.9,11.64t8,29.42Q233.3,56.51,221,74.25t-35.79,38.69H156.09q11.9-11.3,20.31-19.77T192.13,76.85Zm19.26-37.67a15.22,15.22,0,0,0-3.28-11.83,12.93,12.93,0,0,0-10.42-4.82A16.44,16.44,0,0,0,186,27.39a18.52,18.52,0,0,0-5.84,11.79A15.06,15.06,0,0,0,183.55,51a13.29,13.29,0,0,0,10.64,4.82,16.1,16.1,0,0,0,11.47-4.78A18.67,18.67,0,0,0,211.39,39.18Z"/><path class="cls-1" d="M359.59,83.52A34.11,34.11,0,0,1,370.53,61.7a31.67,31.67,0,0,1,10-6.41A30.33,30.33,0,0,1,392,53.06a26.89,26.89,0,0,1,10.95,2.25A25.3,25.3,0,0,1,417,71.54a31.71,31.71,0,0,1,.89,12,35.61,35.61,0,0,1-2.56,10.1,32.8,32.8,0,0,1-5.37,8.64,33.91,33.91,0,0,1-11.19,8.64A30.31,30.31,0,0,1,385.55,114a26.48,26.48,0,0,1-10.87-2.25,24.72,24.72,0,0,1-8.73-6.47,26,26,0,0,1-5.41-9.89A30.47,30.47,0,0,1,359.59,83.52Zm14.05,0Q372.86,91,376.69,96a12.18,12.18,0,0,0,10.22,5,15.3,15.3,0,0,0,11.3-5,20.44,20.44,0,0,0,5.65-12.5q.79-7.55-3-12.57a12.19,12.19,0,0,0-10.24-5,15.31,15.31,0,0,0-11.28,5A20.53,20.53,0,0,0,373.64,83.52Z"/><path class="cls-1" d="M272.16,11.92h6.31L276.8,27.84h15.55l-.65,6.22H276.14l-1.68,16h-6.31l1.69-16H254.28l.66-6.22h15.55Z"/><path d="M291.9,70.16c-1.55-8.64-9-15.25-15.81-15.25-7.27,0-12.17.08-19.2.07H239.23l-6.12,57.14h17.8c6.58-.28,13.18-.33,19.72-.91,5.73-.51,10.83-2.89,14.15-7.56C291.83,93.75,294.1,82.46,291.9,70.16ZM272.33,96a10.57,10.57,0,0,1-4.53,3.3c-3.45,1.51-15,1.91-19.35.89.31-3.36.58-6.77.93-10.16.8-7.52,1.68-15,2.41-22.56.16-1.65.85-2.13,2.37-2.11,4.32.07,8.63,0,13,.11,5.23.18,8.18,2.67,9.5,7.8C278.75,81.68,276.82,89.21,272.33,96Z"/><path d="M343.17,73Q340.6,65.1,338,57.17a5.31,5.31,0,0,0-.36-.89l-.6-1.82H322l.1.12H322l-1.17,2.17c-.11.17-.22.35-.33.55Q313.66,70,306.77,82.74l-15.64,28.89h16.08l3.25-6c.26-.46.51-.93.76-1.4l1.68-3.07,1.4-2.65h2.08l13.67-.08h1.41l2.43,0,.11,0h1.25l.94,2.71,1.24,3.59c.25.76.51,1.51.79,2.26l1.59,4.61h16ZM319,87.15c3-5.6,5.78-10.69,8.54-15.79h0l.6-1.11.45,1.42h0c.13.41.25.83.38,1.24h0l4.35,14.23Z"/>
    </g>
    </g>
</svg>